<svg width="250" height="250" viewBox="0 0 250 250" fill="none" xmlns="http://www.w3.org/2000/svg">
<circle cx="125" cy="125" r="123.5" fill="white" stroke="#FED410" stroke-width="3"/>
<path d="M221.215 173.39C224.192 170.51 224.27 165.762 221.39 162.785L174.453 114.275C171.573 111.298 166.825 111.22 163.848 114.1C160.871 116.98 160.793 121.728 163.673 124.705L205.395 167.825L162.275 209.547C159.298 212.427 159.22 217.175 162.1 220.152C164.98 223.129 169.729 223.207 172.705 220.327L221.215 173.39ZM33.8764 172.499L215.876 175.499L216.124 160.501L34.1236 157.501L33.8764 172.499Z" fill="#FED410"/>
<path d="M69.3672 128.082H49.1172V149H38.5703V97.8125H71.8984V106.355H49.1172V119.574H69.3672V128.082ZM88.0703 149H77.875V95H88.0703V149ZM107.195 149H97V110.961H107.195V149ZM96.4023 101.117C96.4023 99.5938 96.9062 98.3398 97.9141 97.3555C98.9453 96.3711 100.34 95.8789 102.098 95.8789C103.832 95.8789 105.215 96.3711 106.246 97.3555C107.277 98.3398 107.793 99.5938 107.793 101.117C107.793 102.664 107.266 103.93 106.211 104.914C105.18 105.898 103.809 106.391 102.098 106.391C100.387 106.391 99.0039 105.898 97.9492 104.914C96.918 103.93 96.4023 102.664 96.4023 101.117ZM149.84 130.332C149.84 136.191 148.504 140.891 145.832 144.43C143.184 147.945 139.598 149.703 135.074 149.703C131.23 149.703 128.125 148.367 125.758 145.695V163.625H115.598V110.961H125.02L125.371 114.688C127.832 111.734 131.043 110.258 135.004 110.258C139.691 110.258 143.336 111.992 145.938 115.461C148.539 118.93 149.84 123.711 149.84 129.805V130.332ZM139.68 129.594C139.68 126.055 139.047 123.324 137.781 121.402C136.539 119.48 134.723 118.52 132.332 118.52C129.145 118.52 126.953 119.738 125.758 122.176V137.75C127 140.258 129.215 141.512 132.402 141.512C137.254 141.512 139.68 137.539 139.68 129.594Z" fill="#FED410"/>
</svg>
